# xmcd
#
# Track frame offsets: 
#        150
#        13686
#        30543
#        32106
#        57549
#        66517
#        87248
#        102687
#        119247
#        173350
#        177158
#        201080
#        204523
#        238418
#        269907
#        282163
#        285899
#        314399
#
# Disc length: 4483 seconds
#
# Revision: 0
# Processed by: cddbd v1.4PL0 Copyright (c) Steve Scherf et al.
# Submitted via: ExactAudioCopy v0.90b4
#
DISCID=16118112
DTITLE=Tom Waits - Nighthawks at the Diner
DYEAR=1975
DGENRE=Blues
TTITLE0=Opening Intro
TTITLE1=Emotional Weather Report
TTITLE2=Intro
TTITLE3=On a Foggy Night
TTITLE4=Intro
TTITLE5=Eggs and Sausage (In a Cadillac with Susan Michelson)
TTITLE6=Intro
TTITLE7=Better Off Without a Wife
TTITLE8=Nighthawk Postcards (From Easy Street)
TTITLE9=Intro
TTITLE10=Warm Beer and Cold Women
TTITLE11=Intro
TTITLE12=Putnam County
TTITLE13=Spare Parts I (A Nocturnal Emission)
TTITLE14=Nobody
TTITLE15=Intro
TTITLE16=Big Joe and Phantom 309
TTITLE17=Spare Parts II and Closing
EXTD=
EXTT0=
EXTT1=
EXTT2=
EXTT3=
EXTT4=
EXTT5=
EXTT6=
EXTT7=
EXTT8=
EXTT9=
EXTT10=
EXTT11=
EXTT12=
EXTT13=
EXTT14=
EXTT15=
EXTT16=
EXTT17=
PLAYORDER=
